<svg width="96" height="108" viewBox="0 0 96 108" fill="none" xmlns="http://www.w3.org/2000/svg">
<path d="M-7.84732e-05 97.499V10.0903C-7.84732e-05 6.6649 0.866581 4.12683 2.5999 2.47605C4.33322 0.825269 6.39669 -0.000120815 8.79032 -0.000120815C10.9363 -0.000120815 13.0823 0.598287 15.2284 1.7951L88.3373 44.509C90.9785 46.036 92.8769 47.4804 94.0324 48.8423C95.2293 50.2042 95.8277 51.855 95.8277 53.7947C95.8277 55.693 95.2293 57.3438 94.0324 58.747C92.8769 60.1089 90.9785 61.5533 88.3373 63.0803L15.2284 105.794C13.0823 106.991 10.9363 107.589 8.79032 107.589C6.39669 107.589 4.33322 106.743 2.5999 105.051C0.866581 103.401 -7.84732e-05 100.883 -7.84732e-05 97.499ZM12.1951 91.1848C12.1951 91.7626 12.4014 92.1753 12.8141 92.4229C13.2681 92.6705 13.7633 92.6292 14.2998 92.2991L78.4945 54.9089C78.9897 54.62 79.2373 54.2486 79.2373 53.7947C79.2373 53.2581 78.9897 52.8867 78.4945 52.6804L14.2998 15.2902C13.7633 14.9601 13.2681 14.9188 12.8141 15.1664C12.4014 15.414 12.1951 15.8267 12.1951 16.4045V91.1848Z" fill="#A5A5A5"/>
</svg>
