<svg width="142" height="135" viewBox="0 0 142 135" fill="none" xmlns="http://www.w3.org/2000/svg">
<path d="M27.5473 133.156C25.979 131.959 25.0298 130.37 24.6997 128.389C24.3695 126.45 24.6378 124.2 25.5044 121.642L38.071 84.3135L6.00461 61.3471C3.77606 59.7376 2.20781 58.0661 1.29989 56.3328C0.433227 54.5582 0.330053 52.7217 0.990365 50.8233C1.60941 48.9662 2.78559 47.5837 4.51891 46.6758C6.25222 45.7678 8.48078 45.3345 11.2046 45.3758L50.5756 45.6234L62.5232 8.04752C63.3486 5.44755 64.4628 3.46661 65.866 2.10472C67.2692 0.701555 68.9406 -2.65166e-05 70.8802 -2.65166e-05C72.8612 -2.65166e-05 74.5532 0.701555 75.9564 2.10472C77.3595 3.46661 78.4738 5.44755 79.2992 8.04752L91.2467 45.6234L130.556 45.3758C133.321 45.3345 135.57 45.7678 137.303 46.6758C139.037 47.5837 140.213 48.9662 140.832 50.8233C141.492 52.7217 141.369 54.5582 140.461 56.3328C139.594 58.0661 138.046 59.7376 135.818 61.3471L103.751 84.3135L116.318 121.642C117.185 124.2 117.453 126.45 117.123 128.389C116.793 130.37 115.843 131.959 114.275 133.156C112.666 134.353 110.87 134.786 108.889 134.456C106.95 134.126 104.886 133.156 102.699 131.546L70.8802 108.209L39.1234 131.546C36.9361 133.156 34.852 134.126 32.871 134.456C30.9314 134.786 29.1568 134.353 27.5473 133.156ZM39.9281 116.194C39.9694 116.277 40.1138 116.235 40.3615 116.07L66.9184 95.4563C68.3628 94.342 69.6834 93.7849 70.8802 93.7849C72.1183 93.7849 73.4596 94.342 74.904 95.4563L101.461 116.07C101.709 116.235 101.853 116.277 101.894 116.194C101.977 116.112 101.997 115.947 101.956 115.699L90.6277 84.0659C90.1737 82.9104 89.9261 81.9199 89.8848 81.0945C89.8848 80.2278 90.1118 79.4437 90.5658 78.7421C91.061 78.0406 91.8451 77.3184 92.9181 76.5755L120.713 57.6947C120.961 57.5296 121.064 57.3852 121.023 57.2614C120.981 57.1376 120.816 57.0757 120.527 57.0757L86.9753 58.0042C85.1182 58.0868 83.6944 57.8185 82.7039 57.1995C81.7547 56.5392 81.0532 55.3011 80.5992 53.4852L71.1898 21.295C71.1485 21.0061 71.0453 20.8617 70.8802 20.8617C70.7564 20.8617 70.6739 21.0061 70.6326 21.295L61.2232 53.4852C60.7692 55.3011 60.047 56.5392 59.0565 57.1995C58.1073 57.8185 56.7248 58.0868 54.9089 58.0042L21.3569 57.0757C21.0267 57.0757 20.8616 57.1376 20.8616 57.2614C20.7791 57.4265 20.8616 57.5709 21.1092 57.6947L48.9042 76.5755C49.9772 77.2771 50.7407 77.9993 51.1947 78.7421C51.6899 79.4437 51.9169 80.2278 51.8756 81.0945C51.8756 81.9199 51.6487 82.9104 51.1947 84.0659L39.8662 115.699C39.8249 115.947 39.8456 116.112 39.9281 116.194Z" fill="#0081F0"/>
</svg>
