<svg width="79" height="140" viewBox="0 0 79 140" fill="none" xmlns="http://www.w3.org/2000/svg">
<path d="M39.5568 124.489C33.8616 124.489 28.2284 123.602 22.657 121.828C17.0856 120.094 12.2158 117.267 8.04759 113.347C5.94284 111.324 4.06508 108.786 2.4143 105.732C0.804791 102.678 3.59677e-05 99.7071 3.59677e-05 96.8182C3.59677e-05 95.2913 0.515905 94.0119 1.54764 92.9802C2.62065 91.9072 4.02381 91.3707 5.75713 91.3707C8.68726 91.3707 10.6476 92.9595 11.638 96.1373C12.711 100.264 14.5888 103.648 17.2713 106.29C19.9951 108.89 23.276 110.829 27.1141 112.109C30.9521 113.347 35.141 113.966 39.6806 113.966C43.3124 113.966 46.7377 113.615 49.9567 112.913C53.217 112.17 56.1059 111.036 58.6233 109.509C61.1408 107.982 63.1011 106.021 64.5042 103.628C65.9487 101.193 66.6709 98.2627 66.6709 94.8373C66.6709 90.7929 65.6598 87.5326 63.6376 85.0564C61.6566 82.5803 58.9948 80.62 55.6519 79.1755C52.3504 77.6898 48.7187 76.493 44.7568 75.5851L32.8093 72.7994C27.5268 71.5613 22.5538 69.8074 17.8904 67.5375C13.2269 65.2677 9.45075 62.255 6.56188 58.4995C3.71429 54.7027 2.29049 49.9567 2.29049 44.2615C2.29049 39.433 3.30159 35.1823 5.3238 31.5093C7.346 27.795 10.1111 24.6792 13.619 22.1617C17.1269 19.6443 21.1094 17.7665 25.5665 16.5285C30.0236 15.2491 34.6664 14.6094 39.4949 14.6094C45.1076 14.6094 50.5139 15.5174 55.7138 17.3332C60.9138 19.1491 65.3915 21.9348 69.1471 25.6903C71.2931 27.8363 73.0883 30.4156 74.5327 33.4283C75.9772 36.3997 76.6994 39.1235 76.6994 41.5997C76.6994 43.2504 76.1629 44.5917 75.0899 45.6234C74.0581 46.6139 72.7375 47.1091 71.128 47.1091C69.5185 47.1091 68.2185 46.6552 67.228 45.7472C66.2376 44.8393 65.4947 43.6631 64.9995 42.2187C64.1741 39.4537 62.9773 37.0188 61.409 34.914C59.8408 32.768 57.963 30.9934 55.7757 29.5902C53.5885 28.1458 51.1329 27.0522 48.4091 26.3093C45.6854 25.5665 42.714 25.195 39.4949 25.195C36.3585 25.195 33.2839 25.5871 30.2712 26.3712C27.2585 27.1141 24.5347 28.249 22.0998 29.776C19.7062 31.3029 17.7872 33.2013 16.3428 35.4711C14.8983 37.741 14.1761 40.3616 14.1761 43.333C14.1761 46.9234 15.1047 49.9155 16.9618 52.3091C18.8602 54.6615 21.357 56.5805 24.4522 58.0662C27.5887 59.5519 31.0347 60.7487 34.7902 61.6566L46.6758 64.5661C51.0091 65.5979 55.0742 66.8566 58.871 68.3423C62.709 69.7867 66.0931 71.6232 69.0232 73.8518C71.9947 76.039 74.3057 78.7835 75.9565 82.085C77.6486 85.3453 78.4946 89.2866 78.4946 93.9087C78.4946 98.9436 77.4629 103.359 75.3994 107.156C73.3359 110.953 70.4883 114.131 66.8566 116.689C63.2662 119.289 59.1186 121.229 54.4139 122.508C49.7504 123.829 44.7981 124.489 39.5568 124.489ZM39.2473 139.532C38.133 139.532 37.1838 139.119 36.3997 138.294C35.6156 137.51 35.2235 136.561 35.2235 135.446V4.0238C35.2235 2.95079 35.6156 2.02223 36.3997 1.23811C37.1838 0.412719 38.133 2.45534e-05 39.2473 2.45534e-05C40.3616 2.45534e-05 41.3108 0.412719 42.0949 1.23811C42.879 2.02223 43.2711 2.95079 43.2711 4.0238V135.446C43.2711 136.561 42.879 137.51 42.0949 138.294C41.3108 139.119 40.3616 139.532 39.2473 139.532Z" fill="#9B9B9B"/>
</svg>
